<svg xmlns="http://www.w3.org/2000/svg" xmlns:xlink="http://www.w3.org/1999/xlink"><defs><style>
    .sprite-symbol-usage {display: none;}
    .sprite-symbol-usage:target {display: inline;}
  </style><symbol viewBox="0 0 8.67 18.94" id="fb">
<path d="M6.27,3.36c0.8,0,1.6,0,2.4,0c0-1.12,0-2.24,0-3.36C7.71,0,6.75,0,5.8,0C2.66,0.18,1.54,2.39,1.95,6.12H0v3.52h1.96
	c0,3.1,0,6.21,0,9.31c1.28,0,2.56,0,3.84,0c0-3.1,0-6.21,0-9.31h2.86V6.12H5.79C5.77,5.07,5.75,3.71,6.27,3.36z" />
</symbol><symbol viewBox="0 0 154.38 195.33" id="logo-academy"><defs><style>#logo-academy .cls-1{stroke:#231f20;stroke-miterlimit:10;}</style></defs><title>logo-academy</title><path class="cls-1" d="M78,.59,77.19.5.5,8.54V149.11l76.69,45.63,76.69-45.63V8.54Zm65.85,142.82L77.19,183.07,10.53,143.41V85.79L76.91,125.3l.11,7.16-45.54-27.1-.06,7,45.71,27.47.11,7.35L31.54,120l-.06,7,45.71,27.47,46.15-27.61v-7l0,0V97.1l20.56-12.28Zm0-66.06L125.56,88.09l-8.42,5L77,69.17l-.06,7,34.31,20.41-.3.18-.74.43L105.33,100,77,83.16l-.06,7,22.36,13.3L94,106.94l-.12.07L77,97.06l-.06,7L88,110.54l-11.29,6.78-66-39.26L76.82,38.31h0Zm0-7-67-39.51h0L10.53,70.31V17.58l66.66-7,66.66,7Z" /></symbol><symbol id="logo-all">
<g class="page-header__logo-mb">
<path class="st0" d="M8.11 12.42c3.73 0 6.18-1.99 6.18-4.95V7.4c0-3.22-2.41-4.89-6.05-4.89h-5.7v9.91zM0 1.44C0 .74.58.16 1.25.16h7.18c5.09 0 8.44 2.7 8.44 7.14v.07c0 4.86-4.06 7.37-8.86 7.37H2.54v6.83c0 .7-.58 1.28-1.29 1.28-.67 0-1.25-.58-1.25-1.28zM21.72 1.28c0-.7.58-1.28 1.26-1.28.71 0 1.29.58 1.29 1.28v20.29c0 .7-.58 1.28-1.29 1.28-.68 0-1.26-.58-1.26-1.28V1.28zM30.87 1.32c0-.68.57-1.26 1.25-1.26h.36c.58 0 .93.29 1.28.74l13.69 17.45v-17c0-.67.54-1.25 1.25-1.25.68 0 1.23.58 1.23 1.25V21.6c0 .68-.49 1.19-1.16 1.19h-.13c-.55 0-.94-.32-1.32-.77L33.34 4.15V21.6c0 .67-.54 1.25-1.25 1.25-.68 0-1.22-.58-1.22-1.25zM56.29 1.28c0-.7.58-1.28 1.26-1.28.71 0 1.29.58 1.29 1.28v12.33L71.68.45c.29-.26.58-.45 1-.45.68 0 1.23.61 1.23 1.25 0 .36-.16.65-.42.9l-7.99 7.92 8.57 10.56c.22.29.35.55.35.94 0 .67-.58 1.29-1.28 1.29-.49 0-.81-.26-1.04-.58l-8.4-10.47-4.86 4.86v4.9c0 .71-.58 1.29-1.29 1.29-.67 0-1.25-.58-1.25-1.29V1.28z" />
</g>

<g class="page-header__logo-tablet">
<style type="text/css">
		#logo-all .st0{fill:#ffffff;}
	</style>
	<path class="st0" d="M79.98,29.64C83.72,29.64 86.16,27.64 86.16,24.68L86.16,24.61C86.16,21.39 83.75,19.72 80.11,19.72L74.41,19.72L74.41,29.64L79.98,29.64ZM71.87,18.66C71.87,17.95 72.45,17.37 73.12,17.37L80.3,17.37C85.39,17.37 88.74,20.07 88.74,24.51L88.74,24.58C88.74,29.44 84.68,31.95 79.89,31.95L74.41,31.95L74.41,38.78C74.41,39.48 73.83,40.06 73.12,40.06C72.45,40.06 71.87,39.48 71.87,38.78L71.87,18.66Z" />
	<path class="st0" d="M93.6,18.5C93.6,17.79 94.18,17.21 94.85,17.21C95.56,17.21 96.14,17.79 96.14,18.5L96.14,38.78C96.14,39.49 95.56,40.06 94.85,40.06C94.18,40.06 93.6,39.49 93.6,38.78Z" />
	<path class="st0" d="M102.74,18.53C102.74,17.85 103.32,17.27 103.99,17.27L104.35,17.27C104.93,17.27 105.28,17.56 105.64,18.01L119.32,35.46L119.32,18.46C119.32,17.79 119.87,17.21 120.58,17.21C121.25,17.21 121.8,17.79 121.8,18.46L121.8,38.81C121.8,39.49 121.32,40 120.64,40L120.51,40C119.97,40 119.58,39.68 119.2,39.23L105.22,21.36L105.22,38.81C105.22,39.49 104.67,40.07 103.96,40.07C103.29,40.07 102.74,39.49 102.74,38.81L102.74,18.53Z" />
	<path class="st0" d="M128.17,18.5C128.17,17.79 128.75,17.21 129.43,17.21C130.13,17.21 130.71,17.79 130.71,18.5L130.71,30.83L143.56,17.66C143.85,17.4 144.14,17.21 144.56,17.21C145.23,17.21 145.78,17.82 145.78,18.46C145.78,18.82 145.62,19.11 145.36,19.36L137.38,27.28L145.94,37.84C146.17,38.14 146.3,38.39 146.3,38.78C146.3,39.46 145.72,40.07 145.01,40.07C144.53,40.07 144.2,39.81 143.98,39.49L135.58,29.02L130.72,33.89L130.72,38.78C130.72,39.49 130.14,40.07 129.43,40.07C128.75,40.07 128.17,39.49 128.17,38.78L128.17,18.5Z" />
	<path class="st0" d="M51.99,29.84C51.27,34.11 47.56,37.37 43.09,37.37C38.61,37.37 34.91,34.11 34.19,29.84C34.11,29.35 34.06,28.85 34.06,28.34C34.06,27.83 34.11,27.33 34.19,26.84C34.91,22.57 38.61,19.31 43.09,19.31C47.56,19.31 51.27,22.57 51.99,26.84C52.07,27.33 52.12,27.83 52.12,28.34C52.12,28.85 52.07,29.35 51.99,29.84M26.31,29.84C25.6,34.11 21.89,37.37 17.41,37.37C12.94,37.37 9.23,34.11 8.52,29.84C8.44,29.35 8.38,28.85 8.38,28.34C8.38,27.83 8.44,27.33 8.52,26.84C9.23,22.57 12.94,19.31 17.41,19.31C21.89,19.31 25.59,22.57 26.31,26.84C26.39,27.33 26.45,27.83 26.45,28.34C26.45,28.85 26.39,29.35 26.31,29.84M60.46,28.01C60.46,28 55.28,6.65 55.28,6.65C54.92,4.3 52.69,0 46.68,0C45.85,0 45.18,0.67 45.18,1.49C45.18,2.32 45.85,2.99 46.68,2.99C51.54,2.99 52.26,6.72 52.32,7.14L57.09,26.84L55.02,26.84C54.27,20.91 49.21,16.31 43.09,16.31C36.96,16.31 31.9,20.91 31.16,26.84L29.34,26.84C28.6,20.91 23.54,16.31 17.42,16.31C11.29,16.31 6.23,20.91 5.49,26.84L3.42,26.84L8.18,7.14C8.25,6.72 8.97,2.99 13.82,2.99C14.65,2.99 15.32,2.32 15.32,1.49C15.32,0.67 14.65,0 13.82,0C7.82,0 5.58,4.3 5.22,6.65C5.22,6.65 0.05,28 0.05,28.01C-0.21,29.12 0.58,29.84 1.47,29.84C1.49,29.84 1.5,29.84 1.51,29.84L5.49,29.84C6.23,35.77 11.29,40.37 17.42,40.37C23.54,40.37 28.6,35.77 29.35,29.84L31.16,29.84C31.9,35.77 36.96,40.37 43.09,40.37C49.21,40.37 54.27,35.77 55.01,29.84L59,29.84C59.01,29.84 59.02,29.84 59.03,29.84C59.93,29.84 60.72,29.12 60.46,28.01" />
</g>

<g class="page-header__logo-desktop">
	<style type="text/css">
		#logo-all .st1{fill:#d22856;}
		#logo-all .st0{fill:#ffffff;}
	</style>
	<path class="st0" d="M79.98,29.64C83.72,29.64 86.16,27.64 86.16,24.68L86.16,24.61C86.16,21.39 83.75,19.72 80.11,19.72L74.41,19.72L74.41,29.64L79.98,29.64ZM71.87,18.66C71.87,17.95 72.45,17.37 73.12,17.37L80.3,17.37C85.39,17.37 88.74,20.07 88.74,24.51L88.74,24.58C88.74,29.44 84.68,31.95 79.89,31.95L74.41,31.95L74.41,38.78C74.41,39.48 73.83,40.06 73.12,40.06C72.45,40.06 71.87,39.48 71.87,38.78L71.87,18.66Z" />
	<path class="st0" d="M93.6,18.5C93.6,17.79 94.18,17.21 94.85,17.21C95.56,17.21 96.14,17.79 96.14,18.5L96.14,38.78C96.14,39.49 95.56,40.06 94.85,40.06C94.18,40.06 93.6,39.49 93.6,38.78Z" />
	<path class="st0" d="M102.74,18.53C102.74,17.85 103.32,17.27 103.99,17.27L104.35,17.27C104.93,17.27 105.28,17.56 105.64,18.01L119.32,35.46L119.32,18.46C119.32,17.79 119.87,17.21 120.58,17.21C121.25,17.21 121.8,17.79 121.8,18.46L121.8,38.81C121.8,39.49 121.32,40 120.64,40L120.51,40C119.97,40 119.58,39.68 119.2,39.23L105.22,21.36L105.22,38.81C105.22,39.49 104.67,40.07 103.96,40.07C103.29,40.07 102.74,39.49 102.74,38.81L102.74,18.53Z" />
	<path class="st0" d="M128.17,18.5C128.17,17.79 128.75,17.21 129.43,17.21C130.13,17.21 130.71,17.79 130.71,18.5L130.71,30.83L143.56,17.66C143.85,17.4 144.14,17.21 144.56,17.21C145.23,17.21 145.78,17.82 145.78,18.46C145.78,18.82 145.62,19.11 145.36,19.36L137.38,27.28L145.94,37.84C146.17,38.14 146.3,38.39 146.3,38.78C146.3,39.46 145.72,40.07 145.01,40.07C144.53,40.07 144.2,39.81 143.98,39.49L135.58,29.02L130.72,33.89L130.72,38.78C130.72,39.49 130.14,40.07 129.43,40.07C128.75,40.07 128.17,39.49 128.17,38.78L128.17,18.5Z" />
	<path class="st1" d="M98.49,9.87C96.49,9.87 94.87,8.25 94.87,6.25C94.87,8.25 93.25,9.87 91.24,9.87C93.25,9.87 94.87,11.49 94.87,13.49C94.87,11.49 96.49,9.87 98.49,9.87" />
	<path class="st0" d="M43.09,19.31C43.33,19.31 43.58,19.32 43.82,19.34C43.38,18.61 42.59,18.12 41.68,18.12C40.81,18.12 40.07,17.55 39.8,16.77C39.07,16.97 38.37,17.25 37.71,17.58C37.77,17.6 37.83,17.62 37.9,17.62C39,17.62 39.9,18.52 39.9,19.62C39.9,19.72 39.88,19.81 39.87,19.9C40.87,19.52 41.95,19.31 43.09,19.31" />
	<path class="st0" d="M60.46,28.01C60.45,28 55.28,6.65 55.28,6.65C54.92,4.3 52.69,0 46.68,0C45.85,0 45.18,0.67 45.18,1.49C45.18,2.32 45.85,2.99 46.68,2.99C51.54,2.99 52.26,6.72 52.32,7.14L57.09,26.84L55.02,26.84C54.57,23.28 52.56,20.21 49.71,18.32C48.81,18.7 48.18,19.59 48.18,20.62C48.18,20.71 48.17,20.79 48.16,20.88C50.15,22.23 51.57,24.36 51.98,26.84C52.07,27.33 52.12,27.83 52.12,28.34C52.12,28.85 52.07,29.35 51.98,29.84C51.27,34.11 47.56,37.37 43.09,37.37C38.61,37.37 34.91,34.11 34.19,29.84C34.11,29.35 34.06,28.85 34.06,28.34C34.06,27.83 34.11,27.33 34.19,26.84C34.34,25.96 34.62,25.13 35,24.36C33.97,24.28 33.15,23.42 33.15,22.37C33.15,22.18 33.07,22.01 32.96,21.88C32.02,23.35 31.39,25.03 31.16,26.84L29.34,26.84C28.6,20.91 23.54,16.31 17.41,16.31C11.29,16.31 6.23,20.91 5.49,26.84L3.41,26.84L8.18,7.14C8.24,6.72 8.96,2.99 13.82,2.99C14.65,2.99 15.32,2.32 15.32,1.49C15.32,0.67 14.65,0 13.82,0C7.81,0 5.58,4.3 5.22,6.65C5.22,6.65 0.05,28 0.05,28.01C-0.21,29.12 0.58,29.84 1.47,29.84C1.48,29.84 1.5,29.84 1.51,29.84L5.49,29.84C5.57,30.47 5.71,31.08 5.88,31.67C5.94,31.57 5.98,31.45 5.98,31.32C5.98,30.21 6.88,29.32 7.98,29.32C8.15,29.32 8.3,29.34 8.46,29.38C8.41,29.04 8.38,28.69 8.38,28.34C8.38,27.83 8.44,27.33 8.52,26.84C9.23,22.57 12.94,19.31 17.41,19.31C21.89,19.31 25.59,22.57 26.31,26.84C26.39,27.33 26.45,27.83 26.45,28.34C26.45,28.85 26.39,29.35 26.31,29.84C25.6,34.11 21.89,37.37 17.41,37.37C15.39,37.37 13.53,36.7 12.03,35.58C11.68,35.88 11.23,36.07 10.73,36.07C10.32,36.07 9.98,36.4 9.98,36.82C9.98,37.1 9.92,37.38 9.8,37.63C11.88,39.33 14.53,40.37 17.42,40.37C23.54,40.37 28.6,35.77 29.35,29.84L31.16,29.84C31.9,35.77 36.96,40.37 43.09,40.37C49.21,40.37 54.27,35.77 55.01,29.84L58.99,29.84C59.01,29.84 59.02,29.84 59.03,29.84C59.93,29.84 60.72,29.12 60.46,28.01" />
	<path class="st1" d="M50.68,16.12C48.2,16.12 46.18,14.11 46.18,11.62C46.18,14.11 44.17,16.12 41.68,16.12C44.17,16.12 46.18,18.13 46.18,20.62C46.18,18.13 48.2,16.12 50.68,16.12" />
	<path class="st1" d="M37.9,19.62C36.38,19.62 35.15,18.39 35.15,16.87C35.15,18.39 33.92,19.62 32.4,19.62C33.92,19.62 35.15,20.85 35.15,22.37C35.15,20.85 36.38,19.62 37.9,19.62" />
	<path class="st1" d="M10.73,34.07C9.21,34.07 7.98,32.84 7.98,31.32C7.98,32.84 6.75,34.07 5.23,34.07C6.75,34.07 7.98,35.3 7.98,36.82C7.98,35.3 9.21,34.07 10.73,34.07" />
</g>

</symbol><symbol viewBox="0 0 146.3 40.37" id="logo-desk-foot">
	<style type="text/css">
		#logo-desk-foot .st1{fill:#d22856;}
		#logo-desk-foot .st0{fill:#283645;}
	</style>
	<path class="st0" d="M79.98,29.64C83.72,29.64 86.16,27.64 86.16,24.68L86.16,24.61C86.16,21.39 83.75,19.72 80.11,19.72L74.41,19.72L74.41,29.64L79.98,29.64ZM71.87,18.66C71.87,17.95 72.45,17.37 73.12,17.37L80.3,17.37C85.39,17.37 88.74,20.07 88.74,24.51L88.74,24.58C88.74,29.44 84.68,31.95 79.89,31.95L74.41,31.95L74.41,38.77C74.41,39.48 73.83,40.06 73.12,40.06C72.45,40.06 71.87,39.48 71.87,38.77Z" />
	<path class="st0" d="M93.6,18.5C93.6,17.79 94.18,17.21 94.85,17.21C95.56,17.21 96.14,17.79 96.14,18.5L96.14,38.78C96.14,39.49 95.56,40.06 94.85,40.06C94.18,40.06 93.6,39.49 93.6,38.78Z" />
	<path class="st0" d="M102.74,18.53C102.74,17.85 103.32,17.27 103.99,17.27L104.35,17.27C104.93,17.27 105.28,17.56 105.64,18.01L119.32,35.46L119.32,18.46C119.32,17.79 119.87,17.21 120.58,17.21C121.25,17.21 121.8,17.79 121.8,18.46L121.8,38.81C121.8,39.49 121.32,40 120.64,40L120.51,40C119.97,40 119.58,39.68 119.2,39.23L105.22,21.36L105.22,38.81C105.22,39.49 104.67,40.07 103.96,40.07C103.29,40.07 102.74,39.49 102.74,38.81L102.74,18.53Z" />
	<path class="st0" d="M128.17,18.5C128.17,17.79 128.75,17.21 129.43,17.21C130.13,17.21 130.71,17.79 130.71,18.5L130.71,30.83L143.56,17.66C143.85,17.4 144.14,17.21 144.56,17.21C145.23,17.21 145.78,17.82 145.78,18.46C145.78,18.82 145.62,19.11 145.36,19.36L137.38,27.28L145.94,37.84C146.17,38.14 146.3,38.39 146.3,38.78C146.3,39.46 145.72,40.07 145.01,40.07C144.53,40.07 144.2,39.81 143.98,39.49L135.58,29.02L130.72,33.89L130.72,38.78C130.72,39.49 130.14,40.07 129.43,40.07C128.75,40.07 128.17,39.49 128.17,38.78L128.17,18.5Z" />
	<path class="st1" d="M98.49,9.87C96.49,9.87 94.87,8.25 94.87,6.25C94.87,8.25 93.25,9.87 91.24,9.87C93.25,9.87 94.87,11.49 94.87,13.49C94.87,11.49 96.49,9.87 98.49,9.87" />
	<path class="st1" d="M43.09,19.31C43.33,19.31 43.58,19.32 43.82,19.34C43.38,18.61 42.59,18.12 41.68,18.12C40.81,18.12 40.07,17.55 39.8,16.77C39.07,16.97 38.37,17.25 37.71,17.58C37.77,17.6 37.83,17.62 37.9,17.62C39,17.62 39.9,18.52 39.9,19.62C39.9,19.72 39.88,19.81 39.87,19.9C40.87,19.52 41.95,19.31 43.09,19.31" />
	<path class="st1" d="M60.46,28.01C60.45,28 55.28,6.65 55.28,6.65C54.92,4.3 52.69,0 46.68,0C45.85,0 45.18,0.67 45.18,1.49C45.18,2.32 45.85,2.99 46.68,2.99C51.54,2.99 52.26,6.72 52.32,7.14L57.09,26.84L55.02,26.84C54.57,23.28 52.56,20.21 49.71,18.32C48.81,18.7 48.18,19.59 48.18,20.62C48.18,20.71 48.17,20.79 48.16,20.88C50.15,22.23 51.57,24.36 51.98,26.84C52.07,27.33 52.12,27.83 52.12,28.34C52.12,28.85 52.07,29.35 51.98,29.84C51.27,34.11 47.56,37.37 43.09,37.37C38.61,37.37 34.91,34.11 34.19,29.84C34.11,29.35 34.06,28.85 34.06,28.34C34.06,27.83 34.11,27.33 34.19,26.84C34.34,25.96 34.62,25.13 35,24.36C33.97,24.28 33.15,23.42 33.15,22.37C33.15,22.18 33.07,22.02 32.96,21.89C32.02,23.35 31.39,25.03 31.16,26.84L29.34,26.84C28.6,20.91 23.54,16.31 17.41,16.31C11.29,16.31 6.23,20.91 5.49,26.84L3.41,26.84L8.18,7.14C8.24,6.72 8.96,2.99 13.82,2.99C14.65,2.99 15.32,2.32 15.32,1.49C15.32,0.67 14.65,0 13.82,0C7.81,0 5.58,4.3 5.22,6.65C5.22,6.65 0.05,28 0.05,28.01C-0.21,29.12 0.58,29.84 1.47,29.84C1.48,29.84 1.5,29.84 1.51,29.84L5.49,29.84C5.57,30.47 5.71,31.08 5.88,31.67C5.94,31.57 5.98,31.45 5.98,31.32C5.98,30.21 6.88,29.32 7.98,29.32C8.15,29.32 8.3,29.34 8.46,29.38C8.41,29.04 8.38,28.69 8.38,28.34C8.38,27.83 8.44,27.33 8.52,26.84C9.23,22.57 12.94,19.31 17.41,19.31C21.89,19.31 25.59,22.57 26.31,26.84C26.39,27.33 26.45,27.83 26.45,28.34C26.45,28.85 26.39,29.35 26.31,29.84C25.6,34.11 21.89,37.37 17.41,37.37C15.39,37.37 13.53,36.7 12.03,35.57C11.68,35.88 11.23,36.07 10.73,36.07C10.32,36.07 9.98,36.4 9.98,36.81C9.98,37.1 9.92,37.38 9.8,37.63C11.88,39.33 14.53,40.37 17.42,40.37C23.54,40.37 28.6,35.76 29.35,29.84L31.16,29.84C31.9,35.77 36.96,40.37 43.09,40.37C49.21,40.37 54.27,35.76 55.01,29.84L58.99,29.84C59.01,29.84 59.02,29.83 59.03,29.83C59.93,29.84 60.72,29.12 60.46,28.01" />
	<path class="st0" d="M50.68,16.12C48.2,16.12 46.18,14.11 46.18,11.62C46.18,14.11 44.17,16.12 41.68,16.12C44.17,16.12 46.18,18.13 46.18,20.62C46.18,18.13 48.2,16.12 50.68,16.12" />
	<path class="st0" d="M37.9,19.62C36.38,19.62 35.15,18.39 35.15,16.87C35.15,18.39 33.92,19.62 32.4,19.62C33.92,19.62 35.15,20.85 35.15,22.37C35.15,20.85 36.38,19.62 37.9,19.62" />
	<path class="st0" d="M10.73,34.07C9.21,34.07 7.98,32.84 7.98,31.32C7.98,32.84 6.75,34.07 5.23,34.07C6.75,34.07 7.98,35.3 7.98,36.82C7.98,35.3 9.21,34.07 10.73,34.07" />
</symbol><symbol viewBox="0 0 146.3 40.37" id="logo-desktop"><style>#logo-desktop .st1{fill:#d22856}#logo-desktop .st0{fill:#fff}</style><path class="st0" d="M79.98 29.64c3.74 0 6.18-2 6.18-4.96v-.07c0-3.22-2.41-4.89-6.05-4.89h-5.7v9.92h5.57zm-8.11-10.98c0-.71.58-1.29 1.25-1.29h7.18c5.09 0 8.44 2.7 8.44 7.14v.07c0 4.86-4.06 7.37-8.85 7.37h-5.48v6.83c0 .7-.58 1.28-1.29 1.28-.67 0-1.25-.58-1.25-1.28V18.66zM93.6 18.5c0-.71.58-1.29 1.25-1.29.71 0 1.29.58 1.29 1.29v20.28c0 .71-.58 1.28-1.29 1.28-.67 0-1.25-.57-1.25-1.28zM102.74 18.53c0-.68.58-1.26 1.25-1.26h.36c.58 0 .93.29 1.29.74l13.68 17.45v-17c0-.67.55-1.25 1.26-1.25.67 0 1.22.58 1.22 1.25v20.35c0 .68-.48 1.19-1.16 1.19h-.13c-.54 0-.93-.32-1.31-.77l-13.98-17.87v17.45c0 .68-.55 1.26-1.26 1.26-.67 0-1.22-.58-1.22-1.26V18.53zM128.17 18.5c0-.71.58-1.29 1.26-1.29.7 0 1.28.58 1.28 1.29v12.33l12.85-13.17c.29-.26.58-.45 1-.45.67 0 1.22.61 1.22 1.25 0 .36-.16.65-.42.9l-7.98 7.92 8.56 10.56c.23.3.36.55.36.94 0 .68-.58 1.29-1.29 1.29-.48 0-.81-.26-1.03-.58l-8.4-10.47-4.86 4.87v4.89c0 .71-.58 1.29-1.29 1.29-.68 0-1.26-.58-1.26-1.29V18.5z" /><path class="st1" d="M98.49 9.87c-2 0-3.62-1.62-3.62-3.62 0 2-1.62 3.62-3.63 3.62 2.01 0 3.63 1.62 3.63 3.62 0-2 1.62-3.62 3.62-3.62" /><path class="st0" d="M43.09 19.31c.24 0 .49.01.73.03a2.495 2.495 0 00-2.14-1.22 2 2 0 01-1.88-1.35c-.73.2-1.43.48-2.09.81.06.02.12.04.19.04 1.1 0 2 .9 2 2 0 .1-.02.19-.03.28 1-.38 2.08-.59 3.22-.59" /><path class="st0" d="M60.46 28.01c-.01-.01-5.18-21.36-5.18-21.36C54.92 4.3 52.69 0 46.68 0a1.496 1.496 0 100 2.99c4.86 0 5.58 3.73 5.64 4.15l4.77 19.7h-2.07c-.45-3.56-2.46-6.63-5.31-8.52a2.5 2.5 0 00-1.53 2.3c0 .09-.01.17-.02.26a8.974 8.974 0 013.82 5.96c.09.49.14.99.14 1.5s-.05 1.01-.14 1.5c-.71 4.27-4.42 7.53-8.89 7.53-4.48 0-8.18-3.26-8.9-7.53-.08-.49-.13-.99-.13-1.5s.05-1.01.13-1.5c.15-.88.43-1.71.81-2.48a2.005 2.005 0 01-1.85-1.99c0-.19-.08-.36-.19-.49-.94 1.47-1.57 3.15-1.8 4.96h-1.82c-.74-5.93-5.8-10.53-11.93-10.53-6.12 0-11.18 4.6-11.92 10.53H3.41l4.77-19.7c.06-.42.78-4.15 5.64-4.15a1.496 1.496 0 100-2.99c-6.01 0-8.24 4.3-8.6 6.65 0 0-5.17 21.35-5.17 21.36-.26 1.11.53 1.83 1.42 1.83h4.02c.08.63.22 1.24.39 1.83.06-.1.1-.22.1-.35a2 2 0 012.48-1.94c-.05-.34-.08-.69-.08-1.04 0-.51.06-1.01.14-1.5.71-4.27 4.42-7.53 8.89-7.53 4.48 0 8.18 3.26 8.9 7.53.08.49.14.99.14 1.5s-.06 1.01-.14 1.5a9.023 9.023 0 01-8.9 7.53c-2.02 0-3.88-.67-5.38-1.79-.35.3-.8.49-1.3.49-.41 0-.75.33-.75.75 0 .28-.06.56-.18.81 2.08 1.7 4.73 2.74 7.62 2.74 6.12 0 11.18-4.6 11.93-10.53h1.81c.74 5.93 5.8 10.53 11.93 10.53 6.12 0 11.18-4.6 11.92-10.53h4.02c.9 0 1.69-.72 1.43-1.83" /><path class="st1" d="M50.68 16.12a4.5 4.5 0 01-4.5-4.5c0 2.49-2.01 4.5-4.5 4.5 2.49 0 4.5 2.01 4.5 4.5a4.5 4.5 0 014.5-4.5M37.9 19.62c-1.52 0-2.75-1.23-2.75-2.75 0 1.52-1.23 2.75-2.75 2.75 1.52 0 2.75 1.23 2.75 2.75 0-1.52 1.23-2.75 2.75-2.75M10.73 34.07c-1.52 0-2.75-1.23-2.75-2.75 0 1.52-1.23 2.75-2.75 2.75 1.52 0 2.75 1.23 2.75 2.75 0-1.52 1.23-2.75 2.75-2.75" /></symbol><symbol viewBox="0 0 74.42 22.86" id="logo-mb">
	<style type="text/css">
		#logo-mb .st0{fill:#ffffff;}
	</style>
	<path class="st0" d="M8.11,12.42C11.84,12.42 14.29,10.43 14.29,7.47L14.29,7.4C14.29,4.18 11.88,2.51 8.24,2.51L2.54,2.51L2.54,12.42ZM0,1.44C0,0.74 0.58,0.16 1.25,0.16L8.43,0.16C13.52,0.16 16.87,2.86 16.87,7.3L16.87,7.37C16.87,12.23 12.81,14.74 8.01,14.74L2.54,14.74L2.54,21.57C2.54,22.27 1.96,22.85 1.25,22.85C0.58,22.85 0,22.27 0,21.57Z" />
	<path class="st0" d="M21.72,1.28C21.72,0.58 22.3,0 22.98,0C23.69,0 24.27,0.58 24.27,1.28L24.27,21.57C24.27,22.27 23.69,22.85 22.98,22.85C22.3,22.85 21.72,22.27 21.72,21.57L21.72,1.28Z" />
	<path class="st0" d="M30.87,1.32C30.87,0.64 31.44,0.06 32.12,0.06L32.48,0.06C33.06,0.06 33.41,0.35 33.76,0.8L47.45,18.25L47.45,1.25C47.45,0.58 47.99,0 48.7,0C49.38,0 49.93,0.58 49.93,1.25L49.93,21.6C49.93,22.28 49.44,22.79 48.77,22.79L48.64,22.79C48.09,22.79 47.7,22.47 47.32,22.02L33.34,4.15L33.34,21.6C33.34,22.27 32.8,22.85 32.09,22.85C31.41,22.85 30.87,22.27 30.87,21.6Z" />
	<path class="st0" d="M56.29,1.28C56.29,0.58 56.87,0 57.55,0C58.26,0 58.84,0.58 58.84,1.28L58.84,13.61L71.68,0.45C71.97,0.19 72.26,0 72.68,0C73.36,0 73.91,0.61 73.91,1.25C73.91,1.61 73.75,1.9 73.49,2.15L65.5,10.07L74.07,20.63C74.29,20.92 74.42,21.18 74.42,21.57C74.42,22.24 73.84,22.86 73.14,22.86C72.65,22.86 72.33,22.6 72.1,22.28L63.7,11.81L58.84,16.67L58.84,21.57C58.84,22.28 58.26,22.86 57.55,22.86C56.88,22.86 56.3,22.28 56.3,21.57L56.3,1.28Z" />
</symbol><symbol viewBox="0 0 146.3 40.37" id="logo-mb-foot">
	<style type="text/css">
		#logo-mb-foot .st1{fill:#d22856;}
		#logo-mb-foot .st0{fill:#283645;}
	</style>
	<path class="st0" d="M79.98,29.64C83.72,29.64 86.16,27.64 86.16,24.68L86.16,24.61C86.16,21.39 83.75,19.72 80.11,19.72L74.41,19.72L74.41,29.64L79.98,29.64ZM71.87,18.66C71.87,17.95 72.45,17.37 73.12,17.37L80.3,17.37C85.39,17.37 88.74,20.07 88.74,24.51L88.74,24.58C88.74,29.44 84.68,31.95 79.89,31.95L74.41,31.95L74.41,38.77C74.41,39.48 73.83,40.06 73.12,40.06C72.45,40.06 71.87,39.48 71.87,38.77Z" />
	<path class="st0" d="M93.6,18.5C93.6,17.79 94.18,17.21 94.85,17.21C95.56,17.21 96.14,17.79 96.14,18.5L96.14,38.78C96.14,39.49 95.56,40.06 94.85,40.06C94.18,40.06 93.6,39.49 93.6,38.78Z" />
	<path class="st0" d="M102.74,18.53C102.74,17.85 103.32,17.27 103.99,17.27L104.35,17.27C104.93,17.27 105.28,17.56 105.64,18.01L119.32,35.46L119.32,18.46C119.32,17.79 119.87,17.21 120.58,17.21C121.25,17.21 121.8,17.79 121.8,18.46L121.8,38.81C121.8,39.49 121.32,40 120.64,40L120.51,40C119.97,40 119.58,39.68 119.2,39.23L105.22,21.36L105.22,38.81C105.22,39.49 104.67,40.07 103.96,40.07C103.29,40.07 102.74,39.49 102.74,38.81L102.74,18.53Z" />
	<path class="st0" d="M128.17,18.5C128.17,17.79 128.75,17.21 129.43,17.21C130.13,17.21 130.71,17.79 130.71,18.5L130.71,30.83L143.56,17.66C143.85,17.4 144.14,17.21 144.56,17.21C145.23,17.21 145.78,17.82 145.78,18.46C145.78,18.82 145.62,19.11 145.36,19.36L137.38,27.28L145.94,37.84C146.17,38.14 146.3,38.39 146.3,38.78C146.3,39.46 145.72,40.07 145.01,40.07C144.53,40.07 144.2,39.81 143.98,39.49L135.58,29.02L130.72,33.89L130.72,38.78C130.72,39.49 130.14,40.07 129.43,40.07C128.75,40.07 128.17,39.49 128.17,38.78L128.17,18.5Z" />
	<path class="st1" d="M51.99,29.84C51.27,34.11 47.56,37.37 43.09,37.37C38.61,37.37 34.91,34.11 34.19,29.84C34.11,29.35 34.06,28.85 34.06,28.34C34.06,27.83 34.11,27.33 34.19,26.84C34.91,22.57 38.61,19.31 43.09,19.31C47.56,19.31 51.27,22.57 51.99,26.84C52.07,27.33 52.12,27.83 52.12,28.34C52.12,28.85 52.07,29.35 51.99,29.84M26.31,29.84C25.6,34.11 21.89,37.37 17.41,37.37C12.94,37.37 9.23,34.11 8.52,29.84C8.44,29.35 8.38,28.85 8.38,28.34C8.38,27.83 8.44,27.33 8.52,26.84C9.23,22.57 12.94,19.31 17.41,19.31C21.89,19.31 25.59,22.57 26.31,26.84C26.39,27.33 26.45,27.83 26.45,28.34C26.45,28.85 26.39,29.35 26.31,29.84M60.46,28.01C60.46,28 55.28,6.65 55.28,6.65C54.92,4.3 52.69,0 46.68,0C45.85,0 45.18,0.67 45.18,1.49C45.18,2.32 45.85,2.99 46.68,2.99C51.54,2.99 52.26,6.72 52.32,7.14L57.09,26.84L55.02,26.84C54.27,20.91 49.21,16.31 43.09,16.31C36.96,16.31 31.9,20.91 31.16,26.84L29.34,26.84C28.6,20.91 23.54,16.31 17.42,16.31C11.29,16.31 6.23,20.91 5.49,26.84L3.42,26.84L8.18,7.14C8.25,6.72 8.97,2.99 13.82,2.99C14.65,2.99 15.32,2.32 15.32,1.49C15.32,0.67 14.65,0 13.82,0C7.82,0 5.58,4.3 5.22,6.65C5.22,6.65 0.05,28 0.05,28.01C-0.21,29.12 0.58,29.84 1.47,29.84C1.49,29.84 1.5,29.84 1.51,29.84L5.49,29.84C6.23,35.77 11.29,40.37 17.42,40.37C23.54,40.37 28.6,35.77 29.35,29.84L31.16,29.84C31.9,35.77 36.96,40.37 43.09,40.37C49.21,40.37 54.27,35.77 55.01,29.84L59,29.84C59.01,29.84 59.02,29.84 59.03,29.84C59.93,29.84 60.72,29.12 60.46,28.01" />
</symbol><symbol viewBox="0 0 146.3 40.37" id="logo-tablet">
	<style type="text/css">
    #logo-tablet .pink{fill:#d22856};
    #logo-tablet .grey-blue{fill: #000};
	</style>
	<path class="grey-blue" d="M79.98,29.64C83.72,29.64 86.16,27.64 86.16,24.68L86.16,24.61C86.16,21.39 83.75,19.72 80.11,19.72L74.41,19.72L74.41,29.64L79.98,29.64ZM71.87,18.66C71.87,17.95 72.45,17.37 73.12,17.37L80.3,17.37C85.39,17.37 88.74,20.07 88.74,24.51L88.74,24.58C88.74,29.44 84.68,31.95 79.89,31.95L74.41,31.95L74.41,38.78C74.41,39.48 73.83,40.06 73.12,40.06C72.45,40.06 71.87,39.48 71.87,38.78L71.87,18.66Z" />
	<path class="grey-blue" d="M93.6,18.5C93.6,17.79 94.18,17.21 94.85,17.21C95.56,17.21 96.14,17.79 96.14,18.5L96.14,38.78C96.14,39.49 95.56,40.06 94.85,40.06C94.18,40.06 93.6,39.49 93.6,38.78Z" />
	<path class="grey-blue" d="M102.74,18.53C102.74,17.85 103.32,17.27 103.99,17.27L104.35,17.27C104.93,17.27 105.28,17.56 105.64,18.01L119.32,35.46L119.32,18.46C119.32,17.79 119.87,17.21 120.58,17.21C121.25,17.21 121.8,17.79 121.8,18.46L121.8,38.81C121.8,39.49 121.32,40 120.64,40L120.51,40C119.97,40 119.58,39.68 119.2,39.23L105.22,21.36L105.22,38.81C105.22,39.49 104.67,40.07 103.96,40.07C103.29,40.07 102.74,39.49 102.74,38.81L102.74,18.53Z" />
	<path class="grey-blue" d="M128.17,18.5C128.17,17.79 128.75,17.21 129.43,17.21C130.13,17.21 130.71,17.79 130.71,18.5L130.71,30.83L143.56,17.66C143.85,17.4 144.14,17.21 144.56,17.21C145.23,17.21 145.78,17.82 145.78,18.46C145.78,18.82 145.62,19.11 145.36,19.36L137.38,27.28L145.94,37.84C146.17,38.14 146.3,38.39 146.3,38.78C146.3,39.46 145.72,40.07 145.01,40.07C144.53,40.07 144.2,39.81 143.98,39.49L135.58,29.02L130.72,33.89L130.72,38.78C130.72,39.49 130.14,40.07 129.43,40.07C128.75,40.07 128.17,39.49 128.17,38.78L128.17,18.5Z" />
	<path class="pink" d="M51.99,29.84C51.27,34.11 47.56,37.37 43.09,37.37C38.61,37.37 34.91,34.11 34.19,29.84C34.11,29.35 34.06,28.85 34.06,28.34C34.06,27.83 34.11,27.33 34.19,26.84C34.91,22.57 38.61,19.31 43.09,19.31C47.56,19.31 51.27,22.57 51.99,26.84C52.07,27.33 52.12,27.83 52.12,28.34C52.12,28.85 52.07,29.35 51.99,29.84M26.31,29.84C25.6,34.11 21.89,37.37 17.41,37.37C12.94,37.37 9.23,34.11 8.52,29.84C8.44,29.35 8.38,28.85 8.38,28.34C8.38,27.83 8.44,27.33 8.52,26.84C9.23,22.57 12.94,19.31 17.41,19.31C21.89,19.31 25.59,22.57 26.31,26.84C26.39,27.33 26.45,27.83 26.45,28.34C26.45,28.85 26.39,29.35 26.31,29.84M60.46,28.01C60.46,28 55.28,6.65 55.28,6.65C54.92,4.3 52.69,0 46.68,0C45.85,0 45.18,0.67 45.18,1.49C45.18,2.32 45.85,2.99 46.68,2.99C51.54,2.99 52.26,6.72 52.32,7.14L57.09,26.84L55.02,26.84C54.27,20.91 49.21,16.31 43.09,16.31C36.96,16.31 31.9,20.91 31.16,26.84L29.34,26.84C28.6,20.91 23.54,16.31 17.42,16.31C11.29,16.31 6.23,20.91 5.49,26.84L3.42,26.84L8.18,7.14C8.25,6.72 8.97,2.99 13.82,2.99C14.65,2.99 15.32,2.32 15.32,1.49C15.32,0.67 14.65,0 13.82,0C7.82,0 5.58,4.3 5.22,6.65C5.22,6.65 0.05,28 0.05,28.01C-0.21,29.12 0.58,29.84 1.47,29.84C1.49,29.84 1.5,29.84 1.51,29.84L5.49,29.84C6.23,35.77 11.29,40.37 17.42,40.37C23.54,40.37 28.6,35.77 29.35,29.84L31.16,29.84C31.9,35.77 36.96,40.37 43.09,40.37C49.21,40.37 54.27,35.77 55.01,29.84L59,29.84C59.01,29.84 59.02,29.84 59.03,29.84C59.93,29.84 60.72,29.12 60.46,28.01" />
</symbol><symbol viewBox="0 0 17.99 13.97" id="mail">
<style type="text/css">
	#mail .st0{fill:#FFFFFF;}
</style>
<g>
	<g>
		<g>
			<path class="st0" d="M14.91,1.81c1.2-1,0.9-1.81-0.66-1.81H3.73C2.17,0,1.88,0.82,3.07,1.81l3.74,3.12c1.2,1,3.16,1,4.35,0
				L14.91,1.81z" />
		</g>
		<g>
			<path class="st0" d="M11.91,7.04c-1.2,1-2.2,1.83-2.22,1.84c0,0,0,0-0.02,0.01C9.6,8.95,9.52,8.99,9.44,9.03
				c-0.03,0.01-0.07,0.03-0.1,0.05C9.23,9.11,9.12,9.14,9,9.14c0,0-0.01,0-0.01,0c0,0,0,0,0,0c0,0,0,0,0,0c0,0-0.01,0-0.01,0
				c-0.11,0-0.22-0.02-0.34-0.06c-0.03-0.01-0.07-0.03-0.1-0.05C8.46,8.99,8.39,8.95,8.31,8.89C8.29,8.88,8.29,8.88,8.29,8.88
				C8.27,8.87,7.27,8.04,6.07,7.04L2.18,3.8C0.98,2.8,0,3.26,0,4.82v6.32c0,1.56,1.28,2.83,2.83,2.83h12.32
				c1.56,0,2.83-1.27,2.83-2.83V4.82c0-1.56-0.98-2.02-2.18-1.02L11.91,7.04z" />
		</g>
	</g>
</g>
</symbol><symbol viewBox="0 0 19.7 19.7" id="phone">
<style type="text/css">
	#phone .st0{fill:#FFFFFF;}
</style>
<path class="st0" d="M9.85,0c-3.51,0-7.03,0.63-8.3,1.88C0.49,2.92,0.13,4.75,0.02,5.91c0,0-0.02,0.11-0.02,0.17
	C0,6.53,0.37,6.9,0.82,6.9c0.05,0,2.03-0.16,3.22-0.26c0.03,0,0.06-0.01,0.09-0.02c0.44-0.01,0.8-0.37,0.8-0.82l0-1.62
	c0-0.5,0.41-0.9,0.91-0.9h8.03c0.5,0,0.91,0.4,0.91,0.9l0,1.62c0,0.45,0.36,0.81,0.8,0.82c0.03,0.01,0.06,0.01,0.09,0.02
	c1.19,0.1,3.16,0.26,3.22,0.26c0.45,0,0.82-0.37,0.82-0.82c0-0.05-0.02-0.17-0.02-0.17c-0.12-1.16-0.47-3-1.53-4.04
	C16.87,0.63,13.36,0,9.85,0z M9.85,10.67c-0.91,0-1.64,0.73-1.64,1.64s0.73,1.64,1.64,1.64c0.91,0,1.64-0.73,1.64-1.64
	C11.49,11.4,10.75,10.67,9.85,10.67z M8.62,6.97V5.95c0-0.57-0.46-1.03-1.03-1.03S6.57,5.38,6.57,5.95v1.02l-5.54,5.91
	c-0.38,0.38-0.62,0.89-0.62,1.47V16c0,0.91,0.73,1.64,1.64,1.64h0.41v1.02c0,0.57,0.46,1.03,1.03,1.03c0.57,0,1.02-0.46,1.02-1.03
	v-1.02h10.67v1.02c0,0.57,0.46,1.03,1.02,1.03c0.57,0,1.03-0.46,1.03-1.03v-1.02h0.41c0.9,0,1.64-0.73,1.64-1.64v-1.65
	c0-0.58-0.24-1.09-0.62-1.47l-5.54-5.91V5.95c0-0.57-0.46-1.03-1.02-1.03c-0.57,0-1.03,0.46-1.03,1.03v1.02H8.62z M9.85,9.03
	c1.81,0,3.28,1.47,3.28,3.28c0,1.81-1.47,3.28-3.28,3.28c-1.81,0-3.28-1.47-3.28-3.28C6.57,10.5,8.03,9.03,9.85,9.03z" />
</symbol><symbol viewBox="0 0 17.5 14.66" id="twitter">
<g id="twitter_W6EeEF_1_">
	<g>
		<path d="M11.28,0.15c1.74-0.48,3.07,0.26,3.68,1.15c0.69-0.23,1.37-0.47,2.07-0.69c0,0.84-0.54,1.48-0.88,1.73
			c0.7,0.17,1.34-0.48,1.34-0.48c-0.17,0.98-1.04,1.75-1.61,1.98c-0.24,6.59-3.27,10.96-10.38,10.82c-0.54,0,0.08,0-0.46,0
			c-0.42,0-4.29-0.45-5.05-1.84c2.34,0.19,4.01-0.41,4.84-1.15c-0.99-0.29-2.76-0.46-3.07-2.88c0.36,0.1,0.58,0.22,1.23,0.12
			C1.76,8.07,0.38,7.37,0.46,5.22c0.29,0.32,1.1,0.52,1.38,0.46C1.12,5.44-0.19,2.4,0.92,0.84c1.87,1.81,3.85,3.52,7.37,3.69
			C8.51,2.29,9.46,0.79,11.28,0.15z" />
	</g>
</g>
</symbol><symbol viewBox="0 0 14.64 13.96" id="youtube">
<path d="M1.78,13.78C0.8,14.26,0,13.76,0,12.67V1.29C0,0.2,0.8-0.29,1.78,0.18l12.13,5.93c0.97,0.48,0.97,1.26,0,1.74L1.78,13.78z" />
</symbol></defs><use id="fb-usage" xlink:href="#fb" class="sprite-symbol-usage" /><use id="logo-academy-usage" xlink:href="#logo-academy" class="sprite-symbol-usage" /><use id="logo-all-usage" xlink:href="#logo-all" class="sprite-symbol-usage" /><use id="logo-desk-foot-usage" xlink:href="#logo-desk-foot" class="sprite-symbol-usage" /><use id="logo-desktop-usage" xlink:href="#logo-desktop" class="sprite-symbol-usage" /><use id="logo-mb-usage" xlink:href="#logo-mb" class="sprite-symbol-usage" /><use id="logo-mb-foot-usage" xlink:href="#logo-mb-foot" class="sprite-symbol-usage" /><use id="logo-tablet-usage" xlink:href="#logo-tablet" class="sprite-symbol-usage" /><use id="mail-usage" xlink:href="#mail" class="sprite-symbol-usage" /><use id="phone-usage" xlink:href="#phone" class="sprite-symbol-usage" /><use id="twitter-usage" xlink:href="#twitter" class="sprite-symbol-usage" /><use id="youtube-usage" xlink:href="#youtube" class="sprite-symbol-usage" /></svg>