<svg xmlns="http://www.w3.org/2000/svg" width="146.3" height="40.37"><style>.st1{fill:#d22856}.st0{fill:#fff}</style><path class="st0" d="M79.98 29.64c3.74 0 6.18-2 6.18-4.96v-.07c0-3.22-2.41-4.89-6.05-4.89h-5.7v9.92h5.57zm-8.11-10.98c0-.71.58-1.29 1.25-1.29h7.18c5.09 0 8.44 2.7 8.44 7.14v.07c0 4.86-4.06 7.37-8.85 7.37h-5.48v6.83c0 .7-.58 1.28-1.29 1.28-.67 0-1.25-.58-1.25-1.28V18.66zM93.6 18.5c0-.71.58-1.29 1.25-1.29.71 0 1.29.58 1.29 1.29v20.28c0 .71-.58 1.28-1.29 1.28-.67 0-1.25-.57-1.25-1.28zM102.74 18.53c0-.68.58-1.26 1.25-1.26h.36c.58 0 .93.29 1.29.74l13.68 17.45v-17c0-.67.55-1.25 1.26-1.25.67 0 1.22.58 1.22 1.25v20.35c0 .68-.48 1.19-1.16 1.19h-.13c-.54 0-.93-.32-1.31-.77l-13.98-17.87v17.45c0 .68-.55 1.26-1.26 1.26-.67 0-1.22-.58-1.22-1.26V18.53zM128.17 18.5c0-.71.58-1.29 1.26-1.29.7 0 1.28.58 1.28 1.29v12.33l12.85-13.17c.29-.26.58-.45 1-.45.67 0 1.22.61 1.22 1.25 0 .36-.16.65-.42.9l-7.98 7.92 8.56 10.56c.23.3.36.55.36.94 0 .68-.58 1.29-1.29 1.29-.48 0-.81-.26-1.03-.58l-8.4-10.47-4.86 4.87v4.89c0 .71-.58 1.29-1.29 1.29-.68 0-1.26-.58-1.26-1.29V18.5z"/><path class="st1" d="M98.49 9.87c-2 0-3.62-1.62-3.62-3.62 0 2-1.62 3.62-3.63 3.62 2.01 0 3.63 1.62 3.63 3.62 0-2 1.62-3.62 3.62-3.62"/><path class="st0" d="M43.09 19.31c.24 0 .49.01.73.03a2.495 2.495 0 00-2.14-1.22 2 2 0 01-1.88-1.35c-.73.2-1.43.48-2.09.81.06.02.12.04.19.04 1.1 0 2 .9 2 2 0 .1-.02.19-.03.28 1-.38 2.08-.59 3.22-.59"/><path class="st0" d="M60.46 28.01c-.01-.01-5.18-21.36-5.18-21.36C54.92 4.3 52.69 0 46.68 0a1.496 1.496 0 100 2.99c4.86 0 5.58 3.73 5.64 4.15l4.77 19.7h-2.07c-.45-3.56-2.46-6.63-5.31-8.52a2.5 2.5 0 00-1.53 2.3c0 .09-.01.17-.02.26a8.974 8.974 0 013.82 5.96c.09.49.14.99.14 1.5s-.05 1.01-.14 1.5c-.71 4.27-4.42 7.53-8.89 7.53-4.48 0-8.18-3.26-8.9-7.53-.08-.49-.13-.99-.13-1.5s.05-1.01.13-1.5c.15-.88.43-1.71.81-2.48a2.005 2.005 0 01-1.85-1.99c0-.19-.08-.36-.19-.49-.94 1.47-1.57 3.15-1.8 4.96h-1.82c-.74-5.93-5.8-10.53-11.93-10.53-6.12 0-11.18 4.6-11.92 10.53H3.41l4.77-19.7c.06-.42.78-4.15 5.64-4.15a1.496 1.496 0 100-2.99c-6.01 0-8.24 4.3-8.6 6.65 0 0-5.17 21.35-5.17 21.36-.26 1.11.53 1.83 1.42 1.83h4.02c.08.63.22 1.24.39 1.83.06-.1.1-.22.1-.35a2 2 0 012.48-1.94c-.05-.34-.08-.69-.08-1.04 0-.51.06-1.01.14-1.5.71-4.27 4.42-7.53 8.89-7.53 4.48 0 8.18 3.26 8.9 7.53.08.49.14.99.14 1.5s-.06 1.01-.14 1.5a9.023 9.023 0 01-8.9 7.53c-2.02 0-3.88-.67-5.38-1.79-.35.3-.8.49-1.3.49-.41 0-.75.33-.75.75 0 .28-.06.56-.18.81 2.08 1.7 4.73 2.74 7.62 2.74 6.12 0 11.18-4.6 11.93-10.53h1.81c.74 5.93 5.8 10.53 11.93 10.53 6.12 0 11.18-4.6 11.92-10.53h4.02c.9 0 1.69-.72 1.43-1.83"/><path class="st1" d="M50.68 16.12a4.5 4.5 0 01-4.5-4.5c0 2.49-2.01 4.5-4.5 4.5 2.49 0 4.5 2.01 4.5 4.5a4.5 4.5 0 014.5-4.5M37.9 19.62c-1.52 0-2.75-1.23-2.75-2.75 0 1.52-1.23 2.75-2.75 2.75 1.52 0 2.75 1.23 2.75 2.75 0-1.52 1.23-2.75 2.75-2.75M10.73 34.07c-1.52 0-2.75-1.23-2.75-2.75 0 1.52-1.23 2.75-2.75 2.75 1.52 0 2.75 1.23 2.75 2.75 0-1.52 1.23-2.75 2.75-2.75"/></svg>
