<svg xmlns="http://www.w3.org/2000/svg" width="146.3" height="40.37" viewBox="0 0 146.3 40.37">
	<style type="text/css">
    .pink{fill:#d22856};
    .grey-blue{fill: #000};
	</style>
	<path class="grey-blue" d="M79.98,29.64C83.72,29.64 86.16,27.64 86.16,24.68L86.16,24.61C86.16,21.39 83.75,19.72 80.11,19.72L74.41,19.72L74.41,29.64L79.98,29.64ZM71.87,18.66C71.87,17.95 72.45,17.37 73.12,17.37L80.3,17.37C85.39,17.37 88.74,20.07 88.74,24.51L88.74,24.58C88.74,29.44 84.68,31.95 79.89,31.95L74.41,31.95L74.41,38.78C74.41,39.48 73.83,40.06 73.12,40.06C72.45,40.06 71.87,39.48 71.87,38.78L71.87,18.66Z"/>
	<path class="grey-blue" d="M93.6,18.5C93.6,17.79 94.18,17.21 94.85,17.21C95.56,17.21 96.14,17.79 96.14,18.5L96.14,38.78C96.14,39.49 95.56,40.06 94.85,40.06C94.18,40.06 93.6,39.49 93.6,38.78Z"/>
	<path class="grey-blue" d="M102.74,18.53C102.74,17.85 103.32,17.27 103.99,17.27L104.35,17.27C104.93,17.27 105.28,17.56 105.64,18.01L119.32,35.46L119.32,18.46C119.32,17.79 119.87,17.21 120.58,17.21C121.25,17.21 121.8,17.79 121.8,18.46L121.8,38.81C121.8,39.49 121.32,40 120.64,40L120.51,40C119.97,40 119.58,39.68 119.2,39.23L105.22,21.36L105.22,38.81C105.22,39.49 104.67,40.07 103.96,40.07C103.29,40.07 102.74,39.49 102.74,38.81L102.74,18.53Z"/>
	<path class="grey-blue" d="M128.17,18.5C128.17,17.79 128.75,17.21 129.43,17.21C130.13,17.21 130.71,17.79 130.71,18.5L130.71,30.83L143.56,17.66C143.85,17.4 144.14,17.21 144.56,17.21C145.23,17.21 145.78,17.82 145.78,18.46C145.78,18.82 145.62,19.11 145.36,19.36L137.38,27.28L145.94,37.84C146.17,38.14 146.3,38.39 146.3,38.78C146.3,39.46 145.72,40.07 145.01,40.07C144.53,40.07 144.2,39.81 143.98,39.49L135.58,29.02L130.72,33.89L130.72,38.78C130.72,39.49 130.14,40.07 129.43,40.07C128.75,40.07 128.17,39.49 128.17,38.78L128.17,18.5Z"/>
	<path class="pink" d="M51.99,29.84C51.27,34.11 47.56,37.37 43.09,37.37C38.61,37.37 34.91,34.11 34.19,29.84C34.11,29.35 34.06,28.85 34.06,28.34C34.06,27.83 34.11,27.33 34.19,26.84C34.91,22.57 38.61,19.31 43.09,19.31C47.56,19.31 51.27,22.57 51.99,26.84C52.07,27.33 52.12,27.83 52.12,28.34C52.12,28.85 52.07,29.35 51.99,29.84M26.31,29.84C25.6,34.11 21.89,37.37 17.41,37.37C12.94,37.37 9.23,34.11 8.52,29.84C8.44,29.35 8.38,28.85 8.38,28.34C8.38,27.83 8.44,27.33 8.52,26.84C9.23,22.57 12.94,19.31 17.41,19.31C21.89,19.31 25.59,22.57 26.31,26.84C26.39,27.33 26.45,27.83 26.45,28.34C26.45,28.85 26.39,29.35 26.31,29.84M60.46,28.01C60.46,28 55.28,6.65 55.28,6.65C54.92,4.3 52.69,0 46.68,0C45.85,0 45.18,0.67 45.18,1.49C45.18,2.32 45.85,2.99 46.68,2.99C51.54,2.99 52.26,6.72 52.32,7.14L57.09,26.84L55.02,26.84C54.27,20.91 49.21,16.31 43.09,16.31C36.96,16.31 31.9,20.91 31.16,26.84L29.34,26.84C28.6,20.91 23.54,16.31 17.42,16.31C11.29,16.31 6.23,20.91 5.49,26.84L3.42,26.84L8.18,7.14C8.25,6.72 8.97,2.99 13.82,2.99C14.65,2.99 15.32,2.32 15.32,1.49C15.32,0.67 14.65,0 13.82,0C7.82,0 5.58,4.3 5.22,6.65C5.22,6.65 0.05,28 0.05,28.01C-0.21,29.12 0.58,29.84 1.47,29.84C1.49,29.84 1.5,29.84 1.51,29.84L5.49,29.84C6.23,35.77 11.29,40.37 17.42,40.37C23.54,40.37 28.6,35.77 29.35,29.84L31.16,29.84C31.9,35.77 36.96,40.37 43.09,40.37C49.21,40.37 54.27,35.77 55.01,29.84L59,29.84C59.01,29.84 59.02,29.84 59.03,29.84C59.93,29.84 60.72,29.12 60.46,28.01"/>
</svg>
