<svg xmlns="http://www.w3.org/2000/svg" width="74.42" height="22.86"><path class="st0" d="M8.11 12.42c3.73 0 6.18-1.99 6.18-4.95V7.4c0-3.22-2.41-4.89-6.05-4.89h-5.7v9.91zM0 1.44C0 .74.58.16 1.25.16h7.18c5.09 0 8.44 2.7 8.44 7.14v.07c0 4.86-4.06 7.37-8.86 7.37H2.54v6.83c0 .7-.58 1.28-1.29 1.28-.67 0-1.25-.58-1.25-1.28zM21.72 1.28c0-.7.58-1.28 1.26-1.28.71 0 1.29.58 1.29 1.28v20.29c0 .7-.58 1.28-1.29 1.28-.68 0-1.26-.58-1.26-1.28V1.28zM30.87 1.32c0-.68.57-1.26 1.25-1.26h.36c.58 0 .93.29 1.28.74l13.69 17.45v-17c0-.67.54-1.25 1.25-1.25.68 0 1.23.58 1.23 1.25V21.6c0 .68-.49 1.19-1.16 1.19h-.13c-.55 0-.94-.32-1.32-.77L33.34 4.15V21.6c0 .67-.54 1.25-1.25 1.25-.68 0-1.22-.58-1.22-1.25zM56.29 1.28c0-.7.58-1.28 1.26-1.28.71 0 1.29.58 1.29 1.28v12.33L71.68.45c.29-.26.58-.45 1-.45.68 0 1.23.61 1.23 1.25 0 .36-.16.65-.42.9l-7.99 7.92 8.57 10.56c.22.29.35.55.35.94 0 .67-.58 1.29-1.28 1.29-.49 0-.81-.26-1.04-.58l-8.4-10.47-4.86 4.86v4.9c0 .71-.58 1.29-1.29 1.29-.67 0-1.25-.58-1.25-1.29V1.28z"/></svg>
